<?xml version="1.0" encoding="UTF-8"?>
<svg xmlns="http://www.w3.org/2000/svg" viewBox="0 0 1024 1024" width="1024" height="1024">
  <!-- Background: cream brand color -->
  <rect width="1024" height="1024" fill="#FFFDFB"/>

  <!-- Centered pomegranate group -->
  <g transform="translate(512 512) scale(11) translate(-32 -32)">
    <!-- Body -->
    <path d="M32 56 C16 56 10 42 12 28 C13 18 20 10 32 10 C44 10 51 18 52 28 C54 42 48 56 32 56 Z" fill="#C73030"/>
    <!-- Crown / top -->
    <path d="M28 10 L32 2 L36 10 Z" fill="#C73030"/>
    <path d="M30 6 L34 6" stroke="#C73030" stroke-width="2" stroke-linecap="round"/>
    <!-- Highlight -->
    <circle cx="24" cy="22" r="2.2" fill="#FFFFFF" fill-opacity="0.55"/>
    <!-- Seeds -->
    <circle cx="26" cy="34" r="1.6" fill="#FFFFFF" fill-opacity="0.25"/>
    <circle cx="32" cy="38" r="1.6" fill="#FFFFFF" fill-opacity="0.25"/>
    <circle cx="38" cy="34" r="1.6" fill="#FFFFFF" fill-opacity="0.25"/>
    <circle cx="29" cy="42" r="1.4" fill="#FFFFFF" fill-opacity="0.25"/>
    <circle cx="35" cy="42" r="1.4" fill="#FFFFFF" fill-opacity="0.25"/>
  </g>
</svg>
