<?xml version="1.0" encoding="UTF-8"?>
<svg xmlns="http://www.w3.org/2000/svg" viewBox="0 0 1024 1024" width="1024" height="1024">
  <defs>
    <linearGradient id="bg" x1="0" y1="0" x2="0" y2="1">
      <stop offset="0%" stop-color="#FFFDFB"/>
      <stop offset="100%" stop-color="#FBE6DE"/>
    </linearGradient>
    <radialGradient id="body" cx="38%" cy="30%" r="75%">
      <stop offset="0%" stop-color="#F26B6B"/>
      <stop offset="35%" stop-color="#D83838"/>
      <stop offset="75%" stop-color="#A01E1E"/>
      <stop offset="100%" stop-color="#6B1414"/>
    </radialGradient>
    <linearGradient id="crown" x1="0" y1="0" x2="0" y2="1">
      <stop offset="0%" stop-color="#3A0D0D"/>
      <stop offset="100%" stop-color="#7A1818"/>
    </linearGradient>
    <radialGradient id="shine" cx="50%" cy="50%" r="50%">
      <stop offset="0%" stop-color="#FFFFFF" stop-opacity="0.55"/>
      <stop offset="100%" stop-color="#FFFFFF" stop-opacity="0"/>
    </radialGradient>
  </defs>

  <rect width="1024" height="1024" fill="url(#bg)"/>

  <g transform="translate(512 560)">
    <ellipse cx="0" cy="340" rx="300" ry="32" fill="#3A0D0D" fill-opacity="0.18"/>

    <path d="M 0 -280
             C -260 -280 -360 -130 -340 60
             C -320 240 -180 340 0 340
             C 180 340 320 240 340 60
             C 360 -130 260 -280 0 -280 Z"
          fill="url(#body)"/>

    <path d="M -130 -270
             L -95 -345
             L -60 -270
             L -25 -370
             L 10 -270
             L 45 -360
             L 80 -270
             L 115 -345
             L 140 -270 Z"
          fill="url(#crown)"/>

    <ellipse cx="-130" cy="-90" rx="90" ry="140" fill="url(#shine)"/>
    <ellipse cx="-160" cy="-140" rx="28" ry="45" fill="#FFFFFF" fill-opacity="0.7"/>

    <circle cx="60"  cy="100" r="9" fill="#FFFFFF" fill-opacity="0.15"/>
    <circle cx="-30" cy="160" r="7" fill="#FFFFFF" fill-opacity="0.12"/>
    <circle cx="110" cy="150" r="7" fill="#FFFFFF" fill-opacity="0.12"/>
    <circle cx="30"  cy="220" r="6" fill="#FFFFFF" fill-opacity="0.10"/>
    <circle cx="-80" cy="60"  r="6" fill="#FFFFFF" fill-opacity="0.10"/>
  </g>
</svg>
